SplineFontDB: 3.2
FontName: desalph
FullName: desalph
FamilyName: desalph
Weight: Regular
Copyright: (c) 2002-2004 Kenneth R. Beesley (METAFONT sources); (c) 2021 Fredrick R. Brennan (OpenType version)
UComments: "2021-4-1: Created with FontForge (http://fontforge.org)"
Version: 001.000
ItalicAngle: 0
UnderlinePosition: -47.3684
UnderlineWidth: 23.3918
Ascent: 760
Descent: 240
InvalidEm: 0
LayerCount: 2
Layer: 0 0 "Back" 1
Layer: 1 0 "Fore" 0
XUID: [1021 607 1006983212 11179440]
StyleMap: 0x0000
FSType: 0
OS2Version: 0
OS2_WeightWidthSlopeOnly: 0
OS2_UseTypoMetrics: 1
CreationTime: 1617332706
ModificationTime: 1617405468
PfmFamily: 17
TTFWeight: 400
TTFWidth: 5
LineGap: 108
VLineGap: 0
OS2TypoAscent: 0
OS2TypoAOffset: 1
OS2TypoDescent: 0
OS2TypoDOffset: 1
OS2TypoLinegap: 108
OS2WinAscent: 0
OS2WinAOffset: 1
OS2WinDescent: 0
OS2WinDOffset: 1
HheadAscent: 0
HheadAOffset: 1
HheadDescent: 0
HheadDOffset: 1
OS2Vendor: 'FRB '
Lookup: 1 0 0 "'ss01' Style Set 1 in Deseret (Mormon) lookup 0" { "'ss01' Style Set 1 in Deseret (Mormon) lookup 0-1" ("ss01") } ['ss01' ('DFLT' <'dflt' > 'dsrt' <'dflt' > ) ]
Lookup: 258 0 0 "'kern' Horizontal Kerning in Deseret (Mormon) lookup 0" { "'kern' Horizontal Kerning in Deseret (Mormon) lookup 0-1" [807,0,2] } ['kern' ('DFLT' <'dflt' > 'dsrt' <'dflt' > ) ]
MarkAttachClasses: 1
DEI: 91125
KernClass2: 53 47 "'kern' Horizontal Kerning in Deseret (Mormon) lookup 0-1"
 34 u10400 u10402 u10404 u1041F u10427
 6 u10401
 25 u10403 u1040D u10426.ss01
 6 u10405
 6 u10406
 62 u10407 u10408 u10409 u1040B u1040E u10411 u10412 u10414 u10425
 6 u1040A
 6 u1040C
 6 u1040F
 6 u10410
 6 u10413
 6 u10415
 6 u10416
 13 u10417 u10418
 6 u10419
 6 u1041A
 6 u1041B
 6 u1041C
 6 u1041D
 6 u1041E
 6 u10420
 6 u10421
 6 u10422
 6 u10423
 13 u10424 u10433
 6 u10426
 13 u10428 u1044F
 6 u10429
 53 u1042A u1042B u1042C u1042D u10435 u10447 u1044E.ss01
 13 u1042E u1044E
 55 u1042F u10430 u10431 u10436 u10439 u1043A u1043C u1044D
 6 u10432
 6 u10434
 6 u10437
 6 u10438

StartChar: u10400
Encoding: 66560 66560 0
Width: 597
VWidth: 0
Flags: HMW
LayerCount: 2
Fore
SplineSet
488 385 m 1
 479 523 418 654 292 675 c 0
 191 691 98 621 87 519 c 1
 63 523 l 1
 81 634 181 710 292 699 c 0
 450 683 537 517 537 347 c 0
 537 177 450 11 292 -5 c 0
 179 -17 77 63 63 175 c 0
 33 418 327 549 488 385 c 1
489 364 m 1
 344 528 55 408 87 175 c 0
 100 74 192 3 292 19 c 0
 431 41 490 196 489 347 c 0
 489 353 489 358 489 364 c 1
EndSplineSet
Comment: "desalph24.128.ps"
EndChar

StartChar: u10401
Encoding: 66561 66561 1
Width: 559
VWidth: 0
Flags: HMW
LayerCount: 2
Fore
SplineSet
458 550 m 5
 478 562 l 5
 434 635 364 691 279 699 c 4
 171 709 74 636 80 535 c 4
 85 454 152 403 234 381 c 5
 140 355 65 290 61 195 c 4
 56 81 160 -6 279 -5 c 4
 372 -4 457 49 498 133 c 5
 477 145 l 5
 440 68 364 15 279 19 c 4
 183 23 104 101 109 195 c 4
 114 300 216 370 327 370 c 5
 327 394 l 5
 229 394 134 445 128 535 c 4
 123 616 195 679 279 675 c 4
 356 672 418 617 458 550 c 5
EndSplineSet
Comment: "desalph24.129.ps"
EndChar

StartChar: u10402
Encoding: 66562 66562 2
Width: 595
VWidth: 0
Flags: HMW
LayerCount: 2
Fore
SplineSet
344 394 m 1
 344 370 l 1
 229 370 120 304 109 195 c 0
 100 101 171 19 265 19 c 0
 428 19 512 200 512 382 c 0
 512 536 411 675 265 675 c 0
 185 675 119 612 126 535 c 0
 135 440 239 394 344 394 c 1
244 381 m 1
 157 401 88 452 83 535 c 0
 77 629 165 699 265 699 c 0
 423 699 536 549 536 382 c 0
 536 187 440 -5 265 -5 c 0
 150 -5 53 84 61 195 c 0
 67 291 146 355 244 381 c 1
EndSplineSet
Comment: "desalph24.130.ps"
EndChar

StartChar: u10403
Encoding: 66563 66563 3
Width: 663
VWidth: 0
Flags: HMW
LayerCount: 2
Fore
SplineSet
322 699 m 1
 356 719 402 710 439 689 c 0
 551 626 596 496 597 366 c 0
 598 366 600 366 601 366 c 2
 602 357 l 1
 600 357 599 356 597 356 c 0
 597 353 597 350 597 347 c 0
 592 167 494 -4 329 -5 c 0
 163 -6 59 166 60 347 c 0
 61 525 160 695 322 699 c 1
573 368 m 1
 571 492 530 617 422 673 c 0
 390 689 352 696 326 673 c 0
 297 648 301 604 316 567 c 0
 359 458 458 382 573 368 c 1
573 356 m 1
 445 361 332 445 292 569 c 0
 279 611 276 659 308 689 c 1
 171 674 103 510 108 347 c 0
 113 187 183 27 329 19 c 0
 481 11 571 176 573 347 c 0
 573 350 573 353 573 356 c 1
EndSplineSet
Comment: "desalph24.131.ps"
EndChar

StartChar: u10404
Encoding: 66564 66564 4
Width: 657
VWidth: 0
Flags: HMW
LayerCount: 2
Fore
SplineSet
329 699 m 0
 495 699 597 528 597 347 c 0
 597 166 495 -5 329 -5 c 0
 163 -5 60 166 60 347 c 0
 60 528 163 699 329 699 c 0
329 675 m 0
 183 668 108 508 108 347 c 0
 108 186 183 26 329 19 c 0
 482 12 573 176 573 347 c 0
 573 518 482 682 329 675 c 0
EndSplineSet
Comment: "desalph24.132.ps"
EndChar

StartChar: u10405
Encoding: 66565 66565 5
Width: 657
VWidth: 0
Flags: HMW
LayerCount: 2
Fore
SplineSet
392 697 m 1
 410 699 430 693 451 678 c 0
 556 605 597 476 597 347 c 0
 597 171 502 2 340 -5 c 0
 170 -12 60 161 60 347 c 0
 60 558 185 697 392 697 c 1
353 19 m 1
 495 28 573 186 573 347 c 0
 573 465 543 587 447 654 c 0
 397 689 353 663 353 598 c 2
 353 19 l 1
329 19 m 1
 329 598 l 2
 329 633 337 658 352 675 c 1
 194 656 109 527 108 347 c 0
 107 185 187 27 329 19 c 1
EndSplineSet
Comment: "desalph24.133.ps"
EndChar

StartChar: u10406
Encoding: 66566 66566 6
Width: 383
VWidth: 0
Flags: HMW
LayerCount: 2
Fore
SplineSet
178 695 m 1
 206 704 l 1
 206 498 l 1
 322 433 l 5
 322 390 l 5
 206 459 l 1
 206 0 l 1
 178 -10 l 1
 178 475 l 1
 63 539 l 5
 63 582 l 5
 178 513 l 1
 178 695 l 1
EndSplineSet
Comment: "desalph24.134.ps"
EndChar

StartChar: u10407
Encoding: 66567 66567 7
Width: 412
VWidth: 0
Flags: HMW
LayerCount: 2
Fore
SplineSet
324 699 m 1
 353 699 l 1
 353 139 l 1
 353 -5 l 1
 338 -5 l 1
 316 48 265 81 208 82 c 0
 153 83 103 53 78 4 c 1
 62 -14 l 1
 63 65 129 128 208 126 c 0
 266 125 317 86 335 32 c 1
 324 139 l 1
 324 699 l 1
EndSplineSet
Comment: "desalph24.135.ps"
EndChar

StartChar: u10408
Encoding: 66568 66568 8
Width: 384
VWidth: 0
Flags: HMW
LayerCount: 2
Fore
SplineSet
296 699 m 1
 325 699 l 1
 325 139 l 1
 325 26 l 1
 325 0 l 1
 325 -17 l 1
 303 0 l 1
 301 0 l 1
 301 2 l 1
 61 187 l 1
 61 235 l 1
 299 47 l 1
 296 139 l 1
 296 699 l 1
EndSplineSet
Comment: "desalph24.136.ps"
EndChar

StartChar: u10409
Encoding: 66569 66569 9
Width: 504
VWidth: 0
Flags: HMW
LayerCount: 2
Fore
SplineSet
416 699 m 1
 444 699 l 1
 444 -5 l 1
 284 184 l 1
 220 -5 l 1
 61 184 l 1
 61 232 l 1
 220 43 l 1
 284 232 l 1
 418 70 l 1
 416 699 l 1
EndSplineSet
Comment: "desalph24.137.ps"
EndChar

StartChar: u1040A
Encoding: 66570 66570 10
Width: 407
VWidth: 0
Flags: HMW
LayerCount: 2
Fore
SplineSet
60 -5 m 1
 60 556 l 1
 60 699 l 1
 74 699 l 1
 95 646 148 611 205 611 c 0
 268 611 322 651 340 711 c 1
 344 688 l 1
 333 620 275 569 205 570 c 0
 147 571 96 609 78 663 c 1
 89 556 l 1
 89 -5 l 1
 60 -5 l 1
EndSplineSet
Comment: "desalph24.138.ps"
EndChar

StartChar: u1040B
Encoding: 66571 66571 11
Width: 386
VWidth: 0
Flags: HMW
LayerCount: 2
Fore
SplineSet
303 391 m 1
 303 625 l 2
 303 670 249 693 198 678 c 0
 141 662 97 614 98 556 c 0
 99 460 201 414 303 391 c 1
303 378 m 1
 183 397 61 447 62 556 c 0
 63 629 125 682 198 697 c 0
 262 710 327 681 327 625 c 0
 327 -5 l 1
 303 -5 l 1
 303 378 l 1
EndSplineSet
Comment: "desalph24.139.ps"
EndChar

StartChar: u1040C
Encoding: 66572 66572 12
Width: 477
VWidth: 0
Flags: HMW
LayerCount: 2
Fore
SplineSet
236 699 m 1
 274 699 l 1
 274 625 274 339 274 251 c 1
 369 227 431 133 413 35 c 1
 404 35 l 1
 415 123 358 204 274 227 c 1
 273 146 262 28 198 -5 c 0
 129 -41 47 31 63 125 c 0
 77 207 153 261 237 257 c 1
 232 351 232 627 236 699 c 1
239 233 m 1
 168 237 100 194 87 125 c 0
 71 46 143 -14 198 19 c 0
 255 52 244 162 239 233 c 1
EndSplineSet
Comment: "desalph24.140.ps"
EndChar

StartChar: u1040D
Encoding: 66573 66573 13
Width: 567
VWidth: 0
Flags: HMW
LayerCount: 2
Fore
SplineSet
305 359 m 1
 305 335 l 1
 204 335 112 272 109 177 c 0
 106 87 187 19 281 19 c 0
 421 19 478 186 478 347 c 0
 478 350 478 353 478 356 c 1
 350 362 244 462 232 592 c 0
 229 628 235 667 263 689 c 1
 181 679 118 606 123 521 c 0
 128 428 210 359 305 359 c 1
222 349 m 1
 144 375 86 439 85 521 c 0
 84 623 176 698 281 699 c 1
 310 711 344 705 374 689 c 0
 483 630 501 494 502 366 c 0
 503 366 505 366 506 366 c 2
 507 357 l 1
 505 357 504 356 502 356 c 0
 502 353 502 350 502 347 c 0
 502 173 434 -5 281 -5 c 0
 165 -5 59 69 61 177 c 0
 63 265 133 326 222 349 c 1
478 368 m 1
 477 491 463 623 357 673 c 0
 332 685 302 689 280 673 c 0
 255 655 252 621 256 590 c 0
 271 473 363 383 478 368 c 1
EndSplineSet
Comment: "desalph24.141.ps"
EndChar

StartChar: u1040E
Encoding: 66574 66574 14
Width: 579
VWidth: 0
Flags: HMW
LayerCount: 2
Fore
SplineSet
60 699 m 1
 103 699 l 1
 103 139 l 0
 103 78 138 19 195 19 c 0
 252 19 288 78 288 139 c 0
 288 382 l 1
 311 382 l 1
 311 139 l 0
 311 78 347 19 404 19 c 0
 461 19 496 78 496 139 c 0
 496 699 l 1
 520 699 l 1
 520 139 l 0
 520 64 474 -5 404 -5 c 0
 355 -5 317 30 299 76 c 1
 281 32 244 -1 195 -5 c 0
 119 -11 60 59 60 139 c 0
 60 699 l 1
EndSplineSet
Comment: "desalph24.142.ps"
EndChar

StartChar: u1040F
Encoding: 66575 66575 15
Width: 661
VWidth: 0
Flags: HMW
LayerCount: 2
Fore
SplineSet
306 413 m 1
 295 556 258 675 177 675 c 0
 126 675 86 646 86 587 c 4
 86 514 188 438 306 413 c 1
551 699 m 1
 599 699 l 1
 482 389 l 1
 525 386 566 386 598 387 c 1
 599 377 l 1
 566 376 525 377 479 380 c 1
 335 -5 l 1
 306 75 317 250 306 402 c 1
 176 428 62 508 62 587 c 4
 62 659 113 699 177 699 c 0
 264 699 304 565 319 410 c 1
 361 402 404 396 446 392 c 1
 551 699 l 1
340 84 m 1
 443 383 l 1
 403 387 361 392 320 400 c 1
 330 291 329 172 340 84 c 1
EndSplineSet
Comment: "desalph24.143.ps"
EndChar

StartChar: u10410
Encoding: 66576 66576 16
Width: 471
VWidth: 0
Flags: HMW
LayerCount: 2
Fore
SplineSet
197 -5 m 1
 197 109 197 323 197 443 c 1
 117 465 63 540 63 625 c 0
 63 661 88 692 123 698 c 1
 130 691 l 1
 97 686 73 658 73 625 c 0
 73 550 125 486 197 467 c 1
 198 547 210 666 274 699 c 0
 343 735 424 664 408 570 c 0
 394 487 317 432 233 437 c 1
 245 319 246 107 235 -5 c 1
 197 -5 l 1
231 462 m 1
 303 458 371 500 384 570 c 0
 399 648 330 707 274 675 c 0
 217 642 223 535 231 462 c 1
EndSplineSet
Comment: "desalph24.144.ps"
EndChar

StartChar: u10411
Encoding: 66577 66577 17
Width: 567
VWidth: 0
Flags: HMW
LayerCount: 2
Fore
SplineSet
63 661 m 1
 82 695 l 1
 508 695 l 1
 508 7 l 1
 467 -17 l 1
 467 661 l 1
 63 661 l 1
EndSplineSet
Comment: "desalph24.145.ps"
EndChar

StartChar: u10412
Encoding: 66578 66578 18
Width: 529
VWidth: 0
Flags: HMW
LayerCount: 2
Fore
SplineSet
432 693 m 1
 469 699 l 1
 469 2 l 1
 432 -5 l 1
 432 42 l 1
 386 12 331 -5 275 -5 c 0
 140 -5 34 107 67 227 c 0
 85 290 137 331 200 349 c 1
 171 360 147 376 127 398 c 1
 112 396 96 395 82 394 c 1
 81 403 l 1
 94 404 107 405 120 406 c 1
 95 436 80 475 81 518 c 0
 84 626 185 699 298 699 c 0
 352 699 405 681 432 646 c 1
 432 693 l 1
432 533 m 1
 388 465 271 424 165 405 c 1
 193 377 232 359 275 359 c 1
 275 335 l 1
 203 335 137 294 115 227 c 0
 82 123 163 19 275 19 c 0
 331 19 386 37 432 70 c 1
 432 533 l 1
158 411 m 1
 288 430 434 486 429 585 c 0
 426 644 362 675 298 675 c 0
 204 675 123 609 119 518 c 0
 118 477 132 439 158 411 c 1
EndSplineSet
Comment: "desalph24.146.ps"
EndChar

StartChar: u10413
Encoding: 66579 66579 19
Width: 452
VWidth: 0
Flags: HMW
LayerCount: 2
Fore
SplineSet
62 486 m 1
 62 597 131 699 235 699 c 0
 334 699 393 595 393 486 c 2
 393 -5 l 1
 354 -5 l 1
 354 486 l 2
 354 580 317 675 235 675 c 0
 144 675 86 584 86 486 c 1
 62 486 l 1
EndSplineSet
Comment: "desalph24.147.ps"
EndChar

StartChar: u10414
Encoding: 66580 66580 20
Width: 546
VWidth: 0
Flags: HMW
LayerCount: 2
Fore
SplineSet
449 693 m 1
 487 699 l 1
 487 2 l 1
 449 -5 l 1
 449 43 l 1
 399 12 341 -5 281 -5 c 0
 139 -5 70 147 61 308 c 1
 60 308 61 308 60 308 c 1
 60 318 l 2
 61 318 l 0
 60 328 60 337 60 347 c 0
 60 508 161 699 305 699 c 0
 360 699 415 679 443 633 c 0
 445 629 447 626 449 622 c 1
 449 693 l 1
449 500 m 1
 402 415 259 349 99 315 c 1
 105 166 152 19 281 19 c 0
 341 19 399 37 449 70 c 1
 449 500 l 1
99 325 m 1
 321 372 512 478 424 618 c 0
 399 658 352 675 305 675 c 0
 175 675 99 495 99 347 c 0
 99 339 99 333 99 325 c 1
EndSplineSet
Comment: "desalph24.148.ps"
EndChar

StartChar: u10415
Encoding: 66581 66581 21
Width: 566
VWidth: 0
Flags: HMW
LayerCount: 2
Fore
SplineSet
496 534 m 0
 494 530 491 526 487 522 c 0
 478 513 466 508 453 508 c 0
 440 508 428 513 419 522 c 0
 410 531 405 543 405 556 c 0
 405 569 410 580 419 589 c 0
 428 598 440 604 453 604 c 0
 461 604 468 602 475 598 c 1
 452 649 371 700 281 675 c 0
 152 639 108 489 108 347 c 0
 108 210 157 70 281 24 c 0
 356 -4 442 15 498 73 c 1
 505 66 l 1
 448 5 362 -20 281 0 c 0
 135 37 60 191 60 347 c 0
 60 510 131 674 281 699 c 0
 418 721 531 598 496 534 c 0
EndSplineSet
Comment: "desalph24.149.ps"
EndChar

StartChar: u10416
Encoding: 66582 66582 22
Width: 477
VWidth: 0
Flags: HMW
LayerCount: 2
Fore
SplineSet
405 547 m 0
 403 538 399 529 392 522 c 0
 383 513 371 508 358 508 c 0
 345 508 334 513 325 522 c 0
 316 531 311 543 311 556 c 0
 311 569 316 580 325 589 c 0
 334 598 345 604 358 604 c 0
 364 604 371 602 377 600 c 1
 358 636 312 672 258 675 c 0
 171 680 99 609 99 521 c 0
 99 365 294 293 396 411 c 1
 416 423 l 1
 239 -5 l 1
 191 -5 l 1
 375 373 l 1
 260 275 61 350 61 521 c 0
 61 629 153 712 258 699 c 0
 346 687 417 602 405 547 c 0
EndSplineSet
Comment: "desalph24.150.ps"
EndChar

StartChar: u10417
Encoding: 66583 66583 23
Width: 691
VWidth: 0
Flags: HMW
LayerCount: 2
Fore
SplineSet
344 139 m 0
 352 243 l 2
 361 243 l 2
 368 139 l 0
 372 79 428 16 485 19 c 0
 602 25 629 240 601 382 c 0
 572 529 496 675 357 675 c 0
 218 675 141 529 112 382 c 0
 85 243 106 30 222 19 c 0
 281 14 340 76 344 139 c 0
356 78 m 1
 332 27 276 -11 222 -5 c 0
 95 10 45 235 64 382 c 0
 86 553 197 707 357 699 c 0
 509 691 599 541 625 382 c 0
 649 235 610 10 485 -5 c 0
 432 -11 379 28 356 78 c 1
EndSplineSet
Comment: "desalph24.151.ps"
EndChar

StartChar: u10418
Encoding: 66584 66584 24
Width: 690
VWidth: 0
Flags: HMW
LayerCount: 2
Fore
SplineSet
353 243 m 2
 362 243 l 2
 369 139 l 0
 369 139 l 0
 373 78 428 15 485 19 c 0
 583 25 613 177 608 308 c 1
 348 319 206 584 332 683 c 0
 334 684 335 686 337 687 c 1
 208 673 140 526 113 382 c 0
 87 244 107 30 223 19 c 0
 282 13 341 76 345 139 c 0
 353 243 l 2
357 78 m 1
 333 27 277 -11 223 -5 c 0
 96 10 44 235 65 382 c 0
 89 548 198 697 357 698 c 1
 461 738 603 565 625 382 c 0
 643 236 610 10 485 -5 c 0
 432 -11 380 27 357 78 c 1
607 318 m 1
 606 340 604 362 601 382 c 0
 576 562 441 739 347 664 c 0
 231 572 364 330 607 318 c 1
EndSplineSet
Comment: "desalph24.152.ps"
EndChar

StartChar: u10419
Encoding: 66585 66585 25
Width: 431
VWidth: 0
Flags: HMW
LayerCount: 2
Fore
SplineSet
98 -5 m 1
 60 -5 l 1
 60 556 l 0
 60 635 126 697 206 699 c 0
 307 702 387 614 367 518 c 0
 344 413 213 341 98 342 c 1
 98 -5 l 1
98 352 m 1
 203 355 322 422 343 518 c 0
 362 604 293 683 206 675 c 0
 145 669 98 618 98 556 c 2
 98 352 l 1
EndSplineSet
Comment: "desalph24.153.ps"
EndChar

StartChar: u1041A
Encoding: 66586 66586 26
Width: 452
VWidth: 0
Flags: HMW
LayerCount: 2
Fore
SplineSet
109 380 m 1
 223 345 377 224 391 120 c 0
 399 59 356 3 295 -5 c 0
 145 -23 59 198 60 382 c 0
 61 563 152 731 295 699 c 0
 345 688 384 646 379 596 c 0
 370 500 220 397 109 380 c 1
104 371 m 1
 106 199 162 -6 295 19 c 0
 341 28 372 73 367 120 c 0
 357 220 213 338 104 371 c 1
104 388 m 1
 210 403 352 504 355 596 c 0
 356 633 331 664 295 675 c 0
 174 713 106 556 104 388 c 1
EndSplineSet
Comment: "desalph24.154.ps"
EndChar

StartChar: u1041B
Encoding: 66587 66587 27
Width: 567
VWidth: 0
Flags: HMW
LayerCount: 2
Fore
SplineSet
505 33 m 1
 486 0 l 1
 60 0 l 1
 60 688 l 1
 101 712 l 1
 101 33 l 1
 505 33 l 1
EndSplineSet
Comment: "desalph24.155.ps"
EndChar

StartChar: u1041C
Encoding: 66588 66588 28
Width: 609
VWidth: 0
Flags: HMW
LayerCount: 2
Fore
SplineSet
316 355 m 1
 214 194 195 19 320 19 c 0
 443 19 431 197 316 355 c 1
301 375 m 1
 63 681 l 1
 102 708 l 1
 325 408 l 1
 539 698 l 1
 546 692 l 1
 339 388 l 1
 471 206 463 -5 320 -5 c 0
 181 -5 176 197 301 375 c 1
EndSplineSet
Comment: "desalph24.156.ps"
EndChar

StartChar: u1041D
Encoding: 66589 66589 29
Width: 514
VWidth: 0
Flags: HMW
LayerCount: 2
Fore
SplineSet
195 396 m 1
 153 390 110 385 70 378 c 1
 67 387 l 1
 104 393 144 398 183 404 c 1
 127 442 83 491 85 556 c 0
 88 641 167 698 256 699 c 0
 347 700 428 641 427 556 c 0
 426 461 346 426 247 406 c 1
 258 401 268 395 279 390 c 0
 295 382 311 374 326 364 c 1
 364 373 403 380 442 387 c 1
 446 378 l 1
 410 372 373 364 337 356 c 1
 414 303 468 227 450 139 c 0
 432 51 348 -3 256 -5 c 0
 161 -7 73 49 62 139 c 0
 48 256 148 314 275 350 c 1
 261 358 248 366 234 374 c 0
 221 381 208 388 195 396 c 1
288 343 m 1
 163 308 65 251 86 139 c 0
 100 64 176 19 256 19 c 0
 336 19 412 64 426 139 c 0
 443 228 372 292 288 343 c 1
233 413 m 1
 329 432 408 464 404 556 c 0
 401 627 331 674 256 675 c 0
 180 676 110 628 109 556 c 0
 108 486 168 446 233 413 c 1
EndSplineSet
Comment: "desalph24.157.ps"
EndChar

StartChar: u1041E
Encoding: 66590 66590 30
Width: 563
VWidth: 0
Flags: HMW
LayerCount: 2
Fore
SplineSet
110 350 m 0
 110 349 109 348 109 347 c 0
 89 198 146 42 282 19 c 0
 381 2 473 75 478 174 c 0
 487 344 283 445 110 350 c 0
113 374 m 1
 298 462 509 354 502 174 c 0
 497 62 395 -20 282 -5 c 0
 128 15 49 181 61 347 c 0
 78 576 231 711 461 698 c 1
 485 698 l 1
 280 686 149 570 113 374 c 1
EndSplineSet
Comment: "desalph24.158.ps"
EndChar

StartChar: u1041F
Encoding: 66591 66591 31
Width: 546
VWidth: 0
Flags: HMW
LayerCount: 2
Fore
SplineSet
60 693 m 1
 98 699 l 1
 98 652 l 1
 148 683 206 699 266 699 c 0
 419 699 486 521 486 347 c 0
 486 173 419 -5 266 -5 c 0
 206 -5 148 12 98 43 c 1
 98 2 l 1
 60 -5 l 1
 60 693 l 1
98 625 m 1
 98 70 l 1
 148 37 206 19 266 19 c 0
 404 19 448 187 448 347 c 0
 448 507 404 675 266 675 c 0
 206 675 148 658 98 625 c 1
EndSplineSet
Comment: "desalph24.159.ps"
EndChar

StartChar: u10420
Encoding: 66592 66592 32
Width: 550
VWidth: 0
Flags: HMW
LayerCount: 2
Fore
SplineSet
161 188 m 0
 161 179 158 169 151 162 c 0
 144 155 135 151 126 151 c 0
 117 151 107 155 100 162 c 0
 94 168 90 178 89 187 c 1
 48 145 104 19 269 19 c 0
 375 19 466 97 454 195 c 0
 443 290 342 332 250 368 c 0
 167 400 83 450 78 535 c 0
 72 631 165 699 269 699 c 0
 494 699 517 485 413 485 c 0
 404 485 395 488 388 495 c 0
 381 502 377 512 377 521 c 0
 377 530 381 539 388 546 c 0
 395 553 404 557 413 557 c 0
 422 557 432 553 439 546 c 0
 445 540 448 532 449 523 c 1
 484 563 422 675 269 675 c 0
 181 675 104 615 113 535 c 0
 122 455 211 424 289 396 c 0
 388 361 483 297 489 195 c 0
 495 81 390 -5 269 -5 c 0
 33 -5 18 223 126 223 c 0
 135 223 144 220 151 213 c 0
 158 206 161 197 161 188 c 0
EndSplineSet
Comment: "desalph24.162.ps"
EndChar

StartChar: u10421
Encoding: 66593 66593 33
Width: 515
VWidth: 0
Flags: HMW
LayerCount: 2
Fore
SplineSet
241 680 m 1
 274 699 l 1
 274 325 l 1
 363 333 436 401 449 490 c 1
 454 482 l 1
 446 385 369 309 274 301 c 1
 274 15 l 1
 241 -5 l 1
 241 301 l 1
 150 305 61 338 61 417 c 0
 61 495 184 521 241 446 c 1
 241 680 l 1
241 325 m 1
 241 388 l 1
 215 496 85 484 85 417 c 0
 85 350 163 328 241 325 c 1
EndSplineSet
Comment: "desalph24.167.ps"
EndChar

StartChar: u10422
Encoding: 66594 66594 34
Width: 451
VWidth: 0
Flags: HMW
LayerCount: 2
Fore
SplineSet
391 208 m 1
 391 97 322 -5 218 -5 c 0
 119 -5 60 99 60 208 c 2
 60 699 l 1
 98 699 l 1
 98 208 l 2
 98 114 136 19 218 19 c 0
 309 19 367 110 367 208 c 1
 391 208 l 1
EndSplineSet
Comment: "desalph24.171.ps"
EndChar

StartChar: u10423
Encoding: 66595 66595 35
Width: 509
VWidth: 0
Flags: HMW
LayerCount: 2
Fore
SplineSet
159 521 m 0
 159 512 156 502 149 495 c 0
 142 488 132 485 123 485 c 0
 22 485 34 699 253 699 c 0
 372 699 449 580 449 451 c 0
 449 233 299 45 87 -5 c 1
 80 2 l 1
 272 68 401 248 401 451 c 0
 401 563 352 675 253 675 c 0
 106 675 56 567 88 525 c 1
 89 533 92 540 98 546 c 0
 105 553 114 557 123 557 c 0
 132 557 142 553 149 546 c 0
 156 539 159 530 159 521 c 0
EndSplineSet
Comment: "desalph24.172.ps"
EndChar

StartChar: u10424
Encoding: 66596 66596 36
Width: 339
VWidth: 0
Flags: HMW
LayerCount: 2
Fore
SplineSet
60 690 m 1
 93 709 l 1
 93 346 l 1
 280 464 l 1
 280 451 l 1
 280 440 l 1
 280 5 l 1
 247 -15 l 1
 247 419 l 1
 60 301 l 1
 60 313 l 1
 60 325 l 1
 60 690 l 1
EndSplineSet
Comment: "desalph24.174.ps"
EndChar

StartChar: u10425
Encoding: 66597 66597 37
Width: 579
VWidth: 0
Flags: HMW
LayerCount: 2
Fore
SplineSet
60 699 m 1
 103 699 l 1
 103 109 l 1
 477 699 l 1
 520 699 l 1
 520 -5 l 1
 477 -5 l 1
 477 651 l 1
 103 61 l 1
 60 -7 l 1
 60 41 l 1
 60 699 l 1
EndSplineSet
Comment: "desalph24.175.ps"
EndChar

StartChar: u10427
Encoding: 66599 66599 38
Width: 657
VWidth: 0
Flags: HMW
LayerCount: 2
Fore
SplineSet
340 699 m 0
 502 692 597 523 597 347 c 0
 597 171 502 2 340 -5 c 0
 170 -12 60 161 60 347 c 0
 60 533 170 706 340 699 c 0
329 675 m 1
 187 667 108 508 108 347 c 0
 108 186 187 27 329 19 c 1
 329 444 l 1
 226 500 l 1
 226 536 l 1
 329 473 l 1
 329 675 l 1
353 19 m 1
 495 27 573 186 573 347 c 0
 573 508 495 667 353 675 c 1
 353 459 l 1
 456 403 l 1
 456 367 l 1
 353 430 l 1
 353 19 l 1
EndSplineSet
Substitution2: "'ss01' Style Set 1 in Deseret (Mormon) lookup 0-1" u10427.ss01
Comment: "desalph24.176.ps"
EndChar

StartChar: u10427.ss01
Encoding: 1114112 -1 39
Width: 421
VWidth: 0
Flags: HMW
LayerCount: 2
Fore
SplineSet
136 556 m 0
 136 547 132 537 125 530 c 0
 118 523 108 520 99 520 c 0
 90 520 81 523 74 530 c 0
 67 537 64 547 64 556 c 0
 64 558 64 559 64 561 c 0
 72 648 152 711 239 699 c 0
 312 689 366 628 361 556 c 0
 358 512 328 427 288 337 c 1
 356 309 l 1
 344 282 l 1
 277 315 l 1
 214 178 130 31 79 -13 c 1
 62 4 l 1
 113 46 198 188 259 323 c 1
 191 352 l 1
 202 378 l 1
 269 346 l 1
 308 433 335 513 337 556 c 0
 339 614 297 664 239 675 c 0
 172 688 109 649 88 590 c 1
 92 591 95 592 99 592 c 0
 108 592 118 588 125 581 c 0
 132 574 136 565 136 556 c 0
EndSplineSet
Comment: "desalph24.177.ps"
EndChar

StartChar: u10428
Encoding: 66600 66600 40
Width: 454
VWidth: 0
Flags: HMW
LayerCount: 2
Fore
SplineSet
354 273 m 1
 347 368 307 458 220 472 c 0
 150 483 87 433 81 363 c 1
 62 366 l 1
 74 443 142 498 220 491 c 0
 332 481 394 363 394 243 c 0
 394 123 332 6 220 -5 c 0
 141 -12 71 45 62 123 c 0
 42 289 240 381 354 273 c 1
355 256 m 1
 254 363 61 281 81 123 c 0
 90 54 152 5 220 15 c 0
 316 29 357 137 356 243 c 0
 356 247 355 252 355 256 c 1
EndSplineSet
Comment: "desalph24.180.ps"
EndChar

StartChar: u10429
Encoding: 66601 66601 41
Width: 428
VWidth: 0
Flags: HMW
LayerCount: 2
Fore
SplineSet
334 384 m 5
 350 394 l 5
 317 444 270 485 211 491 c 4
 137 499 70 444 75 374 c 4
 79 319 123 283 178 267 c 5
 114 248 63 201 60 136 c 4
 56 56 128 -6 211 -5 c 4
 276 -4 335 34 365 92 c 5
 349 102 l 5
 322 49 269 11 211 15 c 4
 146 19 95 72 99 136 c 4
 103 209 171 258 246 258 c 5
 246 277 l 5
 181 277 119 313 114 374 c 4
 110 428 155 473 211 472 c 4
 264 471 304 428 334 384 c 5
EndSplineSet
Comment: "desalph24.182.ps"
EndChar

StartChar: u1042A
Encoding: 66602 66602 42
Width: 453
VWidth: 0
Flags: HMW
LayerCount: 2
Fore
SplineSet
258 277 m 1
 258 258 l 1
 180 258 108 210 99 136 c 0
 91 72 138 15 201 15 c 0
 314 15 374 140 374 267 c 0
 374 375 303 472 201 472 c 0
 148 472 106 426 112 374 c 0
 120 310 188 277 258 277 c 1
185 267 m 1
 128 283 82 318 78 374 c 0
 73 439 133 491 201 491 c 0
 313 491 393 385 393 267 c 0
 393 129 325 -5 201 -5 c 0
 121 -5 55 58 61 136 c 0
 66 203 118 248 185 267 c 1
EndSplineSet
Comment: "desalph24.183.ps"
EndChar

StartChar: u1042B
Encoding: 66603 66603 43
Width: 508
VWidth: 0
Flags: HMW
LayerCount: 2
Fore
SplineSet
244 490 m 1
 269 506 303 499 331 483 c 0
 409 439 441 348 442 257 c 0
 443 257 445 257 446 257 c 2
 447 249 l 1
 445 249 444 249 442 249 c 0
 442 247 442 245 442 243 c 0
 438 116 367 -4 251 -5 c 0
 133 -6 59 115 60 243 c 0
 61 368 131 485 244 490 c 1
422 259 m 1
 420 345 392 431 318 470 c 0
 296 482 267 486 249 470 c 0
 229 452 232 421 244 395 c 0
 276 322 344 270 422 259 c 1
423 249 m 0
 334 253 256 311 226 396 c 0
 215 426 214 459 234 481 c 1
 140 469 95 356 99 243 c 0
 103 132 150 21 251 15 c 0
 357 9 421 123 423 243 c 0
 423 245 423 247 423 249 c 0
EndSplineSet
Comment: "desalph24.184.ps"
EndChar

StartChar: u1042C
Encoding: 66604 66604 44
Width: 502
VWidth: 0
Flags: HMW
LayerCount: 2
Fore
SplineSet
251 491 m 0
 369 491 442 370 442 243 c 0
 442 116 369 -5 251 -5 c 0
 133 -5 60 116 60 243 c 0
 60 370 133 491 251 491 c 0
251 472 m 0
 149 467 99 355 99 243 c 0
 99 131 149 20 251 15 c 0
 358 9 423 123 423 243 c 0
 423 363 358 478 251 472 c 0
EndSplineSet
Comment: "desalph24.185.ps"
EndChar

StartChar: u1042D
Encoding: 66605 66605 45
Width: 502
VWidth: 0
Flags: HMW
LayerCount: 2
Fore
SplineSet
294 489 m 1
 307 491 323 487 339 476 c 0
 413 425 442 333 442 243 c 0
 442 119 376 0 261 -5 c 0
 141 -11 60 111 60 243 c 0
 60 391 149 487 294 489 c 1
270 15 m 1
 368 22 423 131 423 243 c 0
 423 325 403 410 336 457 c 0
 301 481 270 463 270 418 c 2
 270 15 l 1
251 15 m 1
 251 418 l 2
 251 441 257 460 266 472 c 1
 157 457 100 367 99 243 c 0
 98 131 153 21 251 15 c 1
EndSplineSet
Comment: "desalph24.186.ps"
EndChar

StartChar: u1042E
Encoding: 66606 66606 46
Width: 304
VWidth: 0
Flags: HMW
LayerCount: 2
Fore
SplineSet
141 487 m 1
 163 495 l 1
 163 350 l 1
 243 305 l 5
 243 271 l 5
 163 319 l 1
 163 -1 l 1
 141 -9 l 1
 141 331 l 1
 61 375 l 5
 61 410 l 5
 141 362 l 1
 141 487 l 1
EndSplineSet
Comment: "desalph24.187.ps"
EndChar

StartChar: u1042F
Encoding: 66607 66607 47
Width: 320
VWidth: 0
Flags: HMW
LayerCount: 2
Fore
SplineSet
238 491 m 1
 261 491 l 1
 261 97 l 1
 261 -5 l 1
 249 -5 l 1
 235 31 201 55 162 56 c 0
 125 57 91 35 75 2 c 1
 63 -12 l 1
 59 45 105 92 162 90 c 0
 201 89 234 64 246 29 c 1
 238 97 l 1
 238 491 l 1
EndSplineSet
Comment: "desalph24.188.ps"
EndChar

StartChar: u10430
Encoding: 66608 66608 48
Width: 300
VWidth: 0
Flags: HMW
LayerCount: 2
Fore
SplineSet
218 491 m 1
 241 491 l 1
 241 97 l 1
 241 22 l 1
 241 0 l 1
 241 -12 l 1
 225 0 l 1
 222 0 l 1
 222 2 l 1
 61 123 l 1
 61 161 l 1
 220 38 l 1
 218 97 l 1
 218 491 l 1
EndSplineSet
Comment: "desalph24.189.ps"
EndChar

StartChar: u10431
Encoding: 66609 66609 49
Width: 387
VWidth: 0
Flags: HMW
LayerCount: 2
Fore
SplineSet
305 491 m 1
 328 491 l 1
 328 97 l 1
 328 30 l 1
 328 -5 l 1
 308 19 l 1
 216 127 l 1
 172 -5 l 1
 61 127 l 1
 61 165 l 1
 172 33 l 1
 216 165 l 1
 307 56 l 1
 305 97 l 1
 305 491 l 1
EndSplineSet
Comment: "desalph24.190.ps"
EndChar

StartChar: u10432
Encoding: 66610 66610 50
Width: 315
VWidth: 0
Flags: HMW
LayerCount: 2
Fore
SplineSet
60 -5 m 1
 60 389 l 1
 60 491 l 1
 71 491 l 1
 84 454 120 430 159 430 c 0
 202 430 239 459 250 501 c 1
 254 482 l 1
 250 433 208 396 159 397 c 0
 121 398 87 423 75 458 c 1
 83 389 l 1
 83 -5 l 1
 60 -5 l 1
EndSplineSet
Comment: "desalph24.191.ps"
EndChar

StartChar: u10433
Encoding: 66611 66611 51
Width: 300
VWidth: 0
Flags: HMW
LayerCount: 2
Fore
SplineSet
222 275 m 1
 222 437 l 2
 222 467 186 483 153 474 c 0
 115 463 88 428 90 389 c 0
 93 326 158 294 222 275 c 1
222 264 m 1
 143 280 62 315 61 389 c 0
 60 440 102 480 153 489 c 0
 196 497 241 476 241 437 c 0
 241 -5 l 1
 222 -5 l 1
 222 264 l 1
EndSplineSet
Comment: "desalph24.192.ps"
EndChar

StartChar: u10434
Encoding: 66612 66612 52
Width: 372
VWidth: 0
Flags: HMW
LayerCount: 2
Fore
SplineSet
181 491 m 1
 212 491 l 1
 212 440 212 240 212 177 c 1
 279 160 321 94 308 25 c 1
 301 25 l 1
 309 86 270 142 212 158 c 1
 211 101 202 18 156 -5 c 0
 107 -29 52 23 63 88 c 0
 73 145 125 182 182 181 c 1
 178 248 177 441 181 491 c 1
184 162 m 1
 136 163 91 135 82 88 c 0
 71 34 119 -7 156 15 c 0
 196 37 188 112 184 162 c 1
EndSplineSet
Comment: "desalph24.193.ps"
EndChar

StartChar: u10435
Encoding: 66613 66613 53
Width: 437
VWidth: 0
Flags: HMW
LayerCount: 2
Fore
SplineSet
233 253 m 1
 233 233 l 1
 163 233 101 189 99 124 c 0
 97 62 152 15 216 15 c 0
 314 15 353 131 353 243 c 0
 353 245 353 247 353 249 c 1
 265 254 191 322 181 413 c 0
 178 439 182 466 201 482 c 1
 146 474 106 423 110 365 c 0
 114 301 169 253 233 253 c 1
172 244 m 1
 119 264 81 308 80 365 c 0
 79 436 141 490 215 491 c 1
 236 500 261 495 283 483 c 0
 359 441 371 346 372 257 c 0
 373 257 375 257 376 257 c 2
 377 249 l 1
 375 249 374 249 372 249 c 0
 372 247 372 245 372 243 c 0
 372 120 324 -5 216 -5 c 0
 134 -5 58 47 60 124 c 0
 61 185 110 227 172 244 c 1
353 258 m 1
 352 343 344 435 270 470 c 0
 252 478 231 481 216 470 c 0
 198 457 196 433 200 411 c 0
 212 331 275 270 353 258 c 1
EndSplineSet
Comment: "desalph24.203.ps"
EndChar

StartChar: u10436
Encoding: 66614 66614 54
Width: 436
VWidth: 0
Flags: HMW
LayerCount: 2
Fore
SplineSet
60 491 m 1
 94 491 l 1
 94 97 l 0
 94 55 117 15 156 15 c 0
 195 15 217 55 217 97 c 0
 217 267 l 1
 236 267 l 1
 236 97 l 0
 236 55 258 15 297 15 c 0
 336 15 358 55 358 97 c 0
 358 491 l 1
 378 491 l 1
 378 97 l 0
 378 44 346 -5 297 -5 c 0
 264 -5 239 18 226 49 c 1
 213 20 189 -2 156 -5 c 0
 102 -10 60 40 60 97 c 0
 60 491 l 1
EndSplineSet
Comment: "desalph24.204.ps"
EndChar

StartChar: u10437
Encoding: 66615 66615 55
Width: 504
VWidth: 0
Flags: HMW
LayerCount: 2
Fore
SplineSet
232 289 m 1
 223 388 200 472 136 472 c 0
 101 472 81 448 81 408 c 4
 81 358 150 307 232 289 c 1
404 491 m 1
 443 491 l 1
 360 273 l 1
 391 271 419 270 442 271 c 1
 443 264 l 1
 419 263 389 263 357 265 c 1
 256 -5 l 1
 236 52 241 175 232 281 c 1
 141 299 61 352 61 408 c 4
 61 459 92 491 136 491 c 0
 205 491 230 396 242 287 c 1
 271 281 302 278 331 275 c 1
 404 491 l 1
260 67 m 1
 328 267 l 1
 300 269 271 274 243 279 c 1
 251 206 253 127 260 67 c 1
EndSplineSet
Comment: "desalph24.205.ps"
EndChar

StartChar: u10438
Encoding: 66616 66616 56
Width: 365
VWidth: 0
Flags: HMW
LayerCount: 2
Fore
SplineSet
154 -5 m 1
 153 75 153 225 154 310 c 1
 99 326 61 378 61 437 c 0
 61 462 79 484 104 489 c 1
 109 484 l 1
 86 481 69 460 69 437 c 0
 69 385 105 342 154 329 c 1
 155 386 164 468 210 491 c 0
 259 515 314 464 303 399 c 0
 293 342 241 303 184 305 c 1
 193 222 194 73 185 -5 c 1
 154 -5 l 1
181 325 m 1
 230 323 275 352 284 399 c 0
 295 452 248 492 210 472 c 0
 170 450 175 376 181 325 c 1
EndSplineSet
Comment: "desalph24.206.ps"
EndChar

StartChar: u10439
Encoding: 66617 66617 57
Width: 438
VWidth: 0
Flags: HMW
LayerCount: 2
Fore
SplineSet
62 460 m 1
 78 486 l 1
 378 486 l 1
 378 5 l 1
 345 -15 l 1
 345 460 l 1
 62 460 l 1
EndSplineSet
Comment: "desalph24.207.ps"
EndChar

StartChar: u1043A
Encoding: 66618 66618 58
Width: 405
VWidth: 0
Flags: HMW
LayerCount: 2
Fore
SplineSet
316 486 m 1
 346 491 l 1
 346 1 l 1
 316 -5 l 1
 316 26 l 1
 286 6 251 -5 214 -5 c 0
 115 -5 38 80 67 166 c 0
 80 208 116 233 158 245 c 1
 140 253 124 264 111 279 c 1
 101 277 91 276 82 275 c 1
 81 282 l 1
 89 283 97 284 106 285 c 1
 90 307 80 334 81 363 c 0
 83 438 152 491 230 491 c 0
 264 491 298 479 316 457 c 1
 316 486 l 1
316 373 m 1
 285 328 210 300 140 285 c 1
 159 265 185 253 214 253 c 1
 214 233 l 1
 167 233 122 209 105 166 c 0
 76 93 133 15 214 15 c 0
 251 15 286 26 316 48 c 1
 316 373 l 1
136 289 m 1
 221 304 314 343 313 409 c 0
 312 448 272 472 230 472 c 0
 167 472 114 425 112 363 c 0
 111 336 120 308 136 289 c 1
EndSplineSet
Comment: "desalph24.216.ps"
EndChar

StartChar: u1043B
Encoding: 66619 66619 59
Width: 347
VWidth: 0
Flags: HMW
LayerCount: 2
Fore
SplineSet
61 340 m 1
 61 418 109 491 182 491 c 0
 250 491 288 416 288 340 c 2
 288 -5 l 1
 258 -5 l 1
 258 340 l 2
 258 404 238 472 182 472 c 0
 119 472 81 408 81 340 c 1
 61 340 l 1
EndSplineSet
Comment: "desalph24.217.ps"
EndChar

StartChar: u1043C
Encoding: 66620 66620 60
Width: 416
VWidth: 0
Flags: HMW
LayerCount: 2
Fore
SplineSet
327 486 m 1
 357 491 l 1
 357 1 l 1
 327 -5 l 1
 327 27 l 1
 294 7 255 -5 216 -5 c 0
 117 -5 68 102 61 215 c 1
 60 215 l 1
 60 223 l 2
 61 223 l 0
 60 230 60 236 60 243 c 0
 60 357 131 491 233 491 c 0
 269 491 304 475 322 444 c 0
 324 440 325 438 327 434 c 1
 327 486 l 1
327 354 m 1
 297 293 200 245 91 221 c 1
 95 117 127 15 216 15 c 0
 256 15 294 27 327 49 c 1
 327 354 l 1
91 229 m 1
 238 261 364 336 308 432 c 0
 293 458 263 472 233 472 c 0
 143 472 91 346 91 243 c 0
 91 238 91 234 91 229 c 1
EndSplineSet
Comment: "desalph24.222.ps"
EndChar

StartChar: u1043D
Encoding: 66621 66621 61
Width: 435
VWidth: 0
Flags: HMW
LayerCount: 2
Fore
SplineSet
372 389 m 0
 372 379 368 369 361 362 c 0
 354 355 343 351 333 351 c 0
 323 351 313 355 306 362 c 0
 299 369 295 379 295 389 c 0
 295 399 299 409 306 416 c 0
 313 423 323 427 333 427 c 0
 338 427 343 427 347 425 c 1
 327 458 274 488 216 472 c 0
 126 447 99 342 99 243 c 0
 99 149 131 52 216 19 c 0
 269 -2 329 11 369 51 c 1
 374 46 l 1
 334 3 273 -15 216 0 c 0
 114 26 60 134 60 243 c 0
 60 359 110 476 216 491 c 0
 297 503 366 442 371 395 c 0
 372 393 372 391 372 389 c 0
EndSplineSet
Comment: "desalph24.223.ps"
EndChar

StartChar: u1043E
Encoding: 66622 66622 62
Width: 367
VWidth: 0
Flags: HMW
LayerCount: 2
Fore
SplineSet
299 389 m 0
 299 379 295 369 288 362 c 0
 281 355 271 351 261 351 c 0
 251 351 240 355 233 362 c 0
 226 369 222 379 222 389 c 0
 222 399 226 409 233 416 c 0
 240 423 251 427 261 427 c 0
 265 427 269 427 273 426 c 1
 259 448 231 469 199 472 c 0
 140 478 91 427 91 365 c 0
 91 260 220 210 291 287 c 1
 307 296 l 1
 187 -5 l 1
 149 -5 l 1
 275 260 l 1
 195 196 61 248 61 365 c 0
 61 442 125 504 199 491 c 0
 250 482 292 437 298 399 c 0
 299 396 299 393 299 389 c 0
EndSplineSet
Comment: "desalph24.229.ps"
EndChar

StartChar: u1043F
Encoding: 66623 66623 63
Width: 526
VWidth: 0
Flags: HMW
LayerCount: 2
Fore
SplineSet
262 97 m 0
 268 170 l 2
 275 170 l 2
 281 97 l 0
 285 55 322 13 362 15 c 0
 443 19 463 168 443 267 c 0
 423 369 369 472 272 472 c 0
 175 472 122 369 101 267 c 0
 81 171 96 23 177 15 c 0
 218 11 258 54 262 97 c 0
271 51 m 1
 253 16 215 -10 177 -5 c 0
 88 6 50 163 63 267 c 0
 78 389 158 497 272 491 c 0
 379 485 443 379 461 267 c 0
 477 164 450 6 362 -5 c 0
 325 -10 288 16 271 51 c 1
EndSplineSet
Comment: "desalph24.230.ps"
EndChar

StartChar: u10440
Encoding: 66624 66624 64
Width: 525
VWidth: 0
Flags: HMW
LayerCount: 2
Fore
SplineSet
268 170 m 2
 276 170 l 2
 282 97 l 0
 286 55 323 13 363 15 c 0
 431 19 450 123 447 215 c 1
 265 224 165 408 253 479 c 0
 253 480 l 1
 166 467 121 366 102 267 c 0
 84 171 96 23 177 15 c 0
 218 11 259 54 263 97 c 0
 268 170 l 2
272 51 m 1
 254 16 215 -10 177 -5 c 0
 88 6 48 163 63 267 c 0
 79 383 157 485 268 488 c 1
 342 520 446 399 462 267 c 0
 474 165 451 6 363 -5 c 0
 326 -10 289 16 272 51 c 1
447 223 m 1
 446 238 445 253 443 267 c 0
 425 393 329 517 264 464 c 0
 184 400 279 233 447 223 c 1
EndSplineSet
Comment: "desalph24.231.ps"
EndChar

StartChar: u10441
Encoding: 66625 66625 65
Width: 333
VWidth: 0
Flags: HMW
LayerCount: 2
Fore
SplineSet
91 -5 m 1
 60 -5 l 1
 60 389 l 0
 60 443 103 487 157 491 c 0
 228 495 286 432 270 363 c 0
 254 293 168 243 91 239 c 1
 91 -5 l 1
91 248 m 1
 160 254 235 300 250 363 c 0
 265 424 217 481 157 472 c 0
 117 466 91 430 91 389 c 2
 91 248 l 1
EndSplineSet
Comment: "desalph24.232.ps"
EndChar

StartChar: u10442
Encoding: 66626 66626 66
Width: 349
VWidth: 0
Flags: HMW
LayerCount: 2
Fore
SplineSet
95 266 m 1
 172 240 277 155 288 84 c 0
 294 41 265 1 223 -5 c 0
 118 -20 60 137 60 267 c 0
 60 396 124 517 223 491 c 0
 257 482 282 453 278 418 c 0
 271 353 169 281 95 266 c 1
95 258 m 1
 97 138 132 -5 223 15 c 0
 253 22 272 52 268 84 c 0
 260 151 167 231 95 258 c 1
95 274 m 1
 165 289 254 357 258 418 c 0
 259 442 246 463 223 472 c 0
 142 504 96 393 95 274 c 1
EndSplineSet
Comment: "desalph24.233.ps"
EndChar

StartChar: u10443
Encoding: 66627 66627 67
Width: 438
VWidth: 0
Flags: HMW
LayerCount: 2
Fore
SplineSet
376 26 m 1
 361 0 l 1
 60 0 l 1
 60 481 l 1
 93 501 l 1
 93 26 l 1
 376 26 l 1
EndSplineSet
Comment: "desalph24.234.ps"
EndChar

StartChar: u10444
Encoding: 66628 66628 68
Width: 466
VWidth: 0
Flags: HMW
LayerCount: 2
Fore
SplineSet
243 246 m 1
 173 134 159 15 246 15 c 0
 331 15 323 137 243 246 c 1
230 263 m 1
 62 475 l 1
 94 497 l 1
 250 288 l 1
 398 488 l 1
 405 484 l 1
 261 273 l 1
 355 145 347 -5 246 -5 c 0
 148 -5 143 138 230 263 c 1
EndSplineSet
Comment: "desalph24.235.ps"
EndChar

StartChar: u10445
Encoding: 66629 66629 69
Width: 388
VWidth: 0
Flags: HMW
LayerCount: 2
Fore
SplineSet
150 277 m 1
 123 272 94 269 68 264 c 1
 66 271 l 1
 91 275 117 279 142 283 c 1
 106 310 77 345 78 389 c 0
 80 447 133 490 194 491 c 0
 257 492 311 448 309 389 c 0
 307 326 256 300 191 285 c 1
 198 281 205 278 212 274 c 0
 223 268 232 263 242 256 c 1
 267 262 294 266 319 271 c 1
 322 264 l 1
 299 260 274 255 251 249 c 1
 302 211 338 157 326 97 c 0
 314 36 257 -4 194 -5 c 0
 129 -6 67 34 61 97 c 0
 53 176 119 218 203 244 c 1
 194 250 184 256 175 261 c 0
 166 266 158 271 150 277 c 1
212 239 m 1
 130 214 67 172 80 97 c 0
 89 46 140 15 194 15 c 0
 248 15 298 46 307 97 c 0
 318 158 268 203 212 239 c 1
180 291 m 1
 243 305 293 329 291 389 c 0
 290 438 244 471 194 472 c 0
 143 473 97 438 97 389 c 0
 97 342 137 315 180 291 c 1
EndSplineSet
Comment: "desalph24.236.ps"
EndChar

StartChar: u10446
Encoding: 66630 66630 70
Width: 433
VWidth: 0
Flags: HMW
LayerCount: 2
Fore
SplineSet
100 246 m 0
 100 245 99 244 99 243 c 0
 84 139 123 32 217 15 c 0
 286 3 349 52 353 122 c 0
 359 240 219 310 100 246 c 0
103 264 m 1
 233 322 378 247 373 122 c 0
 370 43 297 -16 217 -5 c 0
 109 9 53 126 61 243 c 0
 73 407 183 501 347 489 c 1
 366 489 l 1
 222 480 130 401 103 264 c 1
EndSplineSet
Comment: "desalph24.237.ps"
EndChar

StartChar: u10447
Encoding: 66631 66631 71
Width: 417
VWidth: 0
Flags: HMW
LayerCount: 2
Fore
SplineSet
60 486 m 1
 90 491 l 1
 90 460 l 1
 123 480 162 491 201 491 c 0
 309 491 357 366 357 243 c 0
 357 120 309 -5 201 -5 c 0
 162 -5 123 7 90 27 c 1
 90 1 l 1
 60 -5 l 1
 60 486 l 1
90 437 m 1
 90 49 l 1
 123 27 161 15 201 15 c 0
 297 15 326 132 326 243 c 0
 326 354 297 472 201 472 c 0
 161 472 123 459 90 437 c 1
EndSplineSet
Comment: "desalph24.238.ps"
EndChar

StartChar: u10448
Encoding: 66632 66632 72
Width: 427
VWidth: 0
Flags: HMW
LayerCount: 2
Fore
SplineSet
135 132 m 0
 135 124 132 116 127 111 c 0
 122 106 114 102 106 102 c 0
 98 102 91 106 86 111 c 0
 81 116 79 122 78 128 c 1
 56 96 100 15 212 15 c 0
 285 15 347 68 339 136 c 0
 331 202 260 233 196 257 c 0
 136 279 75 313 71 374 c 0
 67 443 137 491 212 491 c 0
 375 491 391 336 316 336 c 0
 308 336 301 339 296 344 c 0
 291 349 288 357 288 365 c 0
 288 373 291 380 296 385 c 0
 301 390 308 394 316 394 c 0
 324 394 332 390 337 385 c 0
 342 380 344 375 345 369 c 1
 363 400 316 472 212 472 c 0
 150 472 95 430 101 374 c 0
 107 317 171 297 227 278 c 0
 297 254 363 208 367 136 c 0
 371 55 297 -5 212 -5 c 0
 41 -5 28 160 106 160 c 0
 114 160 122 156 127 151 c 0
 132 146 135 140 135 132 c 0
EndSplineSet
Comment: "desalph24.239.ps"
EndChar

StartChar: u10449
Encoding: 66633 66633 73
Width: 399
VWidth: 0
Flags: HMW
LayerCount: 2
Fore
SplineSet
186 475 m 1
 213 491 l 1
 213 229 l 1
 274 235 324 281 333 343 c 1
 338 337 l 1
 333 269 280 216 213 210 c 1
 213 11 l 1
 186 -5 l 1
 186 209 l 1
 122 212 61 236 61 292 c 0
 61 346 144 366 186 316 c 1
 186 475 l 1
186 229 m 1
 186 274 l 1
 167 346 81 338 81 292 c 0
 81 246 133 231 186 229 c 1
EndSplineSet
Comment: "desalph24.241.ps"
EndChar

StartChar: u1044A
Encoding: 66634 66634 74
Width: 347
VWidth: 0
Flags: HMW
LayerCount: 2
Fore
SplineSet
287 146 m 1
 287 68 239 -5 166 -5 c 0
 98 -5 60 70 60 146 c 2
 60 491 l 1
 91 491 l 1
 91 146 l 2
 91 82 110 15 166 15 c 0
 229 15 268 78 268 146 c 1
 287 146 l 1
EndSplineSet
Comment: "desalph24.242.ps"
EndChar

StartChar: u1044B
Encoding: 66635 66635 75
Width: 398
VWidth: 0
Flags: HMW
LayerCount: 2
Fore
SplineSet
134 365 m 0
 134 357 131 349 126 344 c 0
 121 339 113 336 105 336 c 0
 32 336 42 491 200 491 c 0
 284 491 338 407 338 316 c 0
 338 162 231 28 80 -5 c 1
 74 1 l 1
 209 47 299 173 299 316 c 0
 299 393 268 472 200 472 c 0
 101 472 61 402 77 370 c 1
 78 375 81 381 85 385 c 0
 90 390 97 394 105 394 c 0
 113 394 121 390 126 385 c 0
 131 380 134 373 134 365 c 0
EndSplineSet
Comment: "desalph24.243.ps"
EndChar

StartChar: u1044C
Encoding: 66636 66636 76
Width: 263
VWidth: 0
Flags: HMW
LayerCount: 2
Fore
SplineSet
60 484 m 1
 87 499 l 1
 87 246 l 1
 203 326 l 1
 203 316 l 1
 203 306 l 1
 203 3 l 1
 177 -12 l 1
 177 288 l 1
 60 209 l 1
 60 219 l 1
 60 229 l 1
 60 484 l 1
EndSplineSet
Comment: "desalph24.244.ps"
EndChar

StartChar: u1044D
Encoding: 66637 66637 77
Width: 436
VWidth: 0
Flags: HMW
LayerCount: 2
Fore
SplineSet
60 491 m 1
 94 491 l 1
 94 87 l 1
 343 491 l 1
 378 491 l 1
 378 -5 l 1
 343 -5 l 1
 343 453 l 1
 94 49 l 1
 60 -7 l 1
 60 31 l 1
 60 491 l 1
EndSplineSet
Comment: "desalph24.245.ps"
EndChar

StartChar: u1044F
Encoding: 66639 66639 78
Width: 502
VWidth: 0
Flags: HMW
LayerCount: 2
Fore
SplineSet
261 491 m 0
 376 486 442 367 442 243 c 0
 442 119 376 0 261 -5 c 0
 141 -11 60 111 60 243 c 0
 60 375 141 497 261 491 c 0
251 471 m 1
 153 465 99 355 99 243 c 0
 99 131 153 21 251 15 c 1
 251 310 l 1
 177 350 l 1
 177 379 l 1
 251 333 l 1
 251 471 l 1
270 15 m 1
 368 21 423 131 423 243 c 0
 423 355 368 465 270 471 c 1
 270 322 l 1
 344 282 l 1
 344 253 l 1
 270 299 l 1
 270 15 l 1
EndSplineSet
Substitution2: "'ss01' Style Set 1 in Deseret (Mormon) lookup 0-1" u1044F.ss01
Comment: "desalph24.246.ps"
EndChar

StartChar: u1044F.ss01
Encoding: 1114113 -1 79
Width: 326
VWidth: 0
Flags: HMW
LayerCount: 2
Fore
SplineSet
120 389 m 0
 120 381 117 373 112 368 c 0
 107 363 99 360 91 360 c 0
 83 360 76 363 71 368 c 0
 66 373 63 381 63 389 c 0
 64 452 119 500 182 491 c 0
 232 483 269 439 265 389 c 0
 263 358 243 300 216 237 c 1
 265 218 l 1
 256 196 l 1
 208 219 l 1
 165 123 109 20 75 -12 c 1
 61 2 l 1
 96 32 152 132 194 226 c 1
 144 246 l 1
 153 267 l 1
 201 244 l 1
 227 304 245 359 246 389 c 0
 248 428 221 463 182 472 c 0
 137 482 95 456 80 416 c 1
 84 417 87 418 91 418 c 0
 99 418 107 414 112 409 c 0
 117 404 120 397 120 389 c 0
EndSplineSet
Comment: "desalph24.247.ps"
EndChar

StartChar: u10426
Encoding: 66598 66598 80
Width: 601
VWidth: 0
Flags: HMW
LayerCount: 2
Fore
SplineSet
295 526 m 1
 295 570 l 1
 554 420 l 1
 554 377 l 1
 295 526 l 1
416 699 m 1
 444 699 l 1
 444 -5 l 1
 284 184 l 1
 220 -5 l 1
 61 184 l 1
 61 232 l 1
 220 43 l 1
 284 232 l 1
 418 70 l 1
 416 699 l 1
EndSplineSet
Substitution2: "'ss01' Style Set 1 in Deseret (Mormon) lookup 0-1" u10426.ss01
EndChar

StartChar: u1044E
Encoding: 66638 66638 81
Width: 451
VWidth: 0
Flags: HMW
LayerCount: 2
Fore
SplineSet
223 360 m 1
 223 395 l 1
 404 290 l 1
 404 256 l 1
 223 360 l 1
305 491 m 1
 328 491 l 1
 328 97 l 1
 328 30 l 1
 328 -5 l 1
 308 19 l 1
 216 127 l 1
 172 -5 l 1
 61 127 l 1
 61 165 l 1
 172 33 l 1
 216 165 l 1
 307 56 l 1
 305 97 l 1
 305 491 l 1
EndSplineSet
Substitution2: "'ss01' Style Set 1 in Deseret (Mormon) lookup 0-1" u1044E.ss01
EndChar

StartChar: u10426.ss01
Encoding: 1114114 -1 82
Width: 663
VWidth: 0
Flags: HMW
LayerCount: 2
Fore
SplineSet
344 364 m 1
 325 364 l 29
 450 520 l 29
 470 520 l 1
 344 364 l 1
322 699 m 1
 356 719 402 710 439 689 c 0
 551 626 596 496 597 366 c 0
 598 366 600 366 601 366 c 2
 602 357 l 1
 600 357 599 356 597 356 c 0
 597 353 597 350 597 347 c 0
 592 167 494 -4 329 -5 c 0
 163 -6 59 166 60 347 c 0
 61 525 160 695 322 699 c 1
573 368 m 1
 571 492 530 617 422 673 c 0
 390 689 352 696 326 673 c 0
 297 648 301 604 316 567 c 0
 359 458 458 382 573 368 c 1
573 356 m 1
 445 361 332 445 292 569 c 0
 279 611 276 659 308 689 c 1
 171 674 103 510 108 347 c 0
 113 187 183 27 329 19 c 0
 481 11 571 176 573 347 c 0
 573 350 573 353 573 356 c 1
EndSplineSet
EndChar

StartChar: u1044E.ss01
Encoding: 1114115 -1 83
Width: 508
VWidth: 0
Flags: HMW
LayerCount: 2
Fore
SplineSet
263 254 m 1
 249 254 l 25
 337 364 l 25
 351 364 l 1
 263 254 l 1
244 490 m 1
 269 506 303 499 331 483 c 0
 409 439 441 348 442 257 c 0
 443 257 445 257 446 257 c 2
 447 249 l 1
 445 249 444 249 442 249 c 0
 442 247 442 245 442 243 c 0
 438 116 367 -4 251 -5 c 0
 133 -6 59 115 60 243 c 0
 61 368 131 485 244 490 c 1
422 259 m 1
 420 345 392 431 318 470 c 0
 296 482 267 486 249 470 c 0
 229 452 232 421 244 395 c 0
 276 322 344 270 422 259 c 1
423 249 m 0
 334 253 256 311 226 396 c 0
 215 426 214 459 234 481 c 1
 140 469 95 356 99 243 c 0
 103 132 150 21 251 15 c 0
 357 9 421 123 423 243 c 0
 423 245 423 247 423 249 c 0
EndSplineSet
EndChar

